<mxfile host="app.diagrams.net" modified="2024-04-18T00:41:25.517Z" agent="Mozilla/5.0 (Windows NT 10.0; Win64; x64) AppleWebKit/537.36 (KHTML, like Gecko) Chrome/123.0.0.0 Safari/537.36 OPR/109.0.0.0" etag="1IV0MEafKydeomTYPwT8" version="24.2.5" type="device">
  <diagram name="PÃ¡gina-1" id="xbPTR-oCvCRbQOjM6X14">
    <mxGraphModel dx="1315" dy="1674" grid="1" gridSize="10" guides="1" tooltips="1" connect="1" arrows="1" fold="1" page="1" pageScale="1" pageWidth="827" pageHeight="1169" math="0" shadow="0">
      <root>
        <mxCell id="0" />
        <mxCell id="1" parent="0" />
        <mxCell id="L85n3WBJSnVvxrAXj8Ar-6" value="&lt;b&gt;users&lt;/b&gt;" style="swimlane;childLayout=stackLayout;horizontal=1;startSize=50;horizontalStack=0;rounded=1;fontSize=14;fontStyle=0;strokeWidth=2;resizeParent=0;resizeLast=1;shadow=0;dashed=0;align=center;arcSize=4;whiteSpace=wrap;html=1;" parent="1" vertex="1">
          <mxGeometry x="20" y="122" width="180" height="178" as="geometry" />
        </mxCell>
        <mxCell id="L85n3WBJSnVvxrAXj8Ar-7" value="&lt;div&gt;usuario_id: int&lt;br&gt;&lt;/div&gt;&lt;div&gt;usuario_nombre: varchar&lt;br&gt;&lt;/div&gt;&lt;div&gt;usuario_apellido: varchar&lt;br&gt;&lt;/div&gt;&lt;div&gt;usuario_correo: varchar&lt;br&gt;&lt;/div&gt;&lt;div&gt;usuario_contrasena: int&lt;/div&gt;&lt;div&gt;usuario_status: INT&lt;/div&gt;&lt;div&gt;usuario_rol: INT&lt;br&gt;&lt;/div&gt;&lt;div&gt;&lt;br&gt;&lt;/div&gt;&lt;div&gt;&lt;br&gt;&lt;/div&gt;" style="align=left;strokeColor=none;fillColor=none;spacingLeft=4;fontSize=12;verticalAlign=top;resizable=0;rotatable=0;part=1;html=1;" parent="L85n3WBJSnVvxrAXj8Ar-6" vertex="1">
          <mxGeometry y="50" width="180" height="128" as="geometry" />
        </mxCell>
        <mxCell id="L85n3WBJSnVvxrAXj8Ar-9" value="&lt;b&gt;status&lt;/b&gt;" style="swimlane;childLayout=stackLayout;horizontal=1;startSize=50;horizontalStack=0;rounded=1;fontSize=14;fontStyle=0;strokeWidth=2;resizeParent=0;resizeLast=1;shadow=0;dashed=0;align=center;arcSize=4;whiteSpace=wrap;html=1;" parent="1" vertex="1">
          <mxGeometry x="255" y="40" width="160" height="89" as="geometry" />
        </mxCell>
        <mxCell id="L85n3WBJSnVvxrAXj8Ar-10" value="&lt;div&gt;status_id: INT&lt;/div&gt;&lt;div&gt;status_text: VARCHAR&lt;br&gt;&lt;/div&gt;" style="align=left;strokeColor=none;fillColor=none;spacingLeft=4;fontSize=12;verticalAlign=top;resizable=0;rotatable=0;part=1;html=1;" parent="L85n3WBJSnVvxrAXj8Ar-9" vertex="1">
          <mxGeometry y="50" width="160" height="39" as="geometry" />
        </mxCell>
        <mxCell id="L85n3WBJSnVvxrAXj8Ar-31" value="&lt;div&gt;&lt;b&gt;Rol&lt;/b&gt;&lt;/div&gt;&lt;div&gt;&lt;br&gt;&lt;/div&gt;" style="swimlane;childLayout=stackLayout;horizontal=1;startSize=50;horizontalStack=0;rounded=1;fontSize=14;fontStyle=0;strokeWidth=2;resizeParent=0;resizeLast=1;shadow=0;dashed=0;align=center;arcSize=4;whiteSpace=wrap;html=1;" parent="1" vertex="1">
          <mxGeometry x="310" y="190" width="160" height="120" as="geometry" />
        </mxCell>
        <mxCell id="L85n3WBJSnVvxrAXj8Ar-32" value="&lt;div&gt;rol_id:INT&lt;/div&gt;&lt;div&gt;rol_text:VARCHAR&lt;br&gt;&lt;/div&gt;" style="align=left;strokeColor=none;fillColor=none;spacingLeft=4;fontSize=12;verticalAlign=top;resizable=0;rotatable=0;part=1;html=1;" parent="L85n3WBJSnVvxrAXj8Ar-31" vertex="1">
          <mxGeometry y="50" width="160" height="70" as="geometry" />
        </mxCell>
        <mxCell id="L85n3WBJSnVvxrAXj8Ar-72" value="&lt;b&gt;Productos&lt;/b&gt;" style="swimlane;childLayout=stackLayout;horizontal=1;startSize=50;horizontalStack=0;rounded=1;fontSize=14;fontStyle=0;strokeWidth=2;resizeParent=0;resizeLast=1;shadow=0;dashed=0;align=center;arcSize=4;whiteSpace=wrap;html=1;" parent="1" vertex="1">
          <mxGeometry x="490" y="-80" width="160" height="150" as="geometry" />
        </mxCell>
        <mxCell id="L85n3WBJSnVvxrAXj8Ar-73" value="&lt;div&gt;Nombre:Varchar&lt;/div&gt;&lt;div&gt;Descripcion: Varchar&lt;/div&gt;&lt;div&gt;Precio: INT&lt;/div&gt;&lt;div&gt;Cantidad:INT&lt;/div&gt;&lt;div&gt;status: INT&lt;br&gt;&lt;/div&gt;&lt;div&gt;categoria: varchar&lt;br&gt;&lt;/div&gt;" style="align=left;strokeColor=none;fillColor=none;spacingLeft=4;fontSize=12;verticalAlign=top;resizable=0;rotatable=0;part=1;html=1;" parent="L85n3WBJSnVvxrAXj8Ar-72" vertex="1">
          <mxGeometry y="50" width="160" height="100" as="geometry" />
        </mxCell>
        <mxCell id="SfglfKDmZpsh_MLC09GV-9" style="edgeStyle=orthogonalEdgeStyle;rounded=0;orthogonalLoop=1;jettySize=auto;html=1;exitX=0.5;exitY=0;exitDx=0;exitDy=0;entryX=1;entryY=0.25;entryDx=0;entryDy=0;" edge="1" parent="1" source="L85n3WBJSnVvxrAXj8Ar-91" target="L85n3WBJSnVvxrAXj8Ar-73">
          <mxGeometry relative="1" as="geometry" />
        </mxCell>
        <mxCell id="SfglfKDmZpsh_MLC09GV-10" style="edgeStyle=orthogonalEdgeStyle;rounded=0;orthogonalLoop=1;jettySize=auto;html=1;exitX=0;exitY=0.5;exitDx=0;exitDy=0;entryX=1;entryY=0.5;entryDx=0;entryDy=0;" edge="1" parent="1" source="L85n3WBJSnVvxrAXj8Ar-91" target="L85n3WBJSnVvxrAXj8Ar-10">
          <mxGeometry relative="1" as="geometry" />
        </mxCell>
        <mxCell id="L85n3WBJSnVvxrAXj8Ar-91" value="&lt;b&gt;categorias&lt;/b&gt;" style="swimlane;childLayout=stackLayout;horizontal=1;startSize=50;horizontalStack=0;rounded=1;fontSize=14;fontStyle=0;strokeWidth=2;resizeParent=0;resizeLast=1;shadow=0;dashed=0;align=center;arcSize=4;whiteSpace=wrap;html=1;" parent="1" vertex="1">
          <mxGeometry x="640" y="140" width="160" height="120" as="geometry" />
        </mxCell>
        <mxCell id="L85n3WBJSnVvxrAXj8Ar-92" value="categoria id: INT&lt;div&gt;descripcion_categoria:varchar&lt;br&gt;&lt;/div&gt;&lt;div&gt;categoria_status:INT&lt;/div&gt;" style="align=left;strokeColor=none;fillColor=none;spacingLeft=4;fontSize=12;verticalAlign=top;resizable=0;rotatable=0;part=1;html=1;" parent="L85n3WBJSnVvxrAXj8Ar-91" vertex="1">
          <mxGeometry y="50" width="160" height="70" as="geometry" />
        </mxCell>
        <mxCell id="L85n3WBJSnVvxrAXj8Ar-101" value="&lt;div&gt;&lt;b&gt;&lt;font style=&quot;font-size: 24px;&quot;&gt;INVENTARIO&lt;/font&gt;&lt;/b&gt;&lt;/div&gt;&lt;div&gt;&lt;br&gt;&lt;/div&gt;" style="text;html=1;align=center;verticalAlign=middle;resizable=0;points=[];autosize=1;strokeColor=none;fillColor=none;" parent="1" vertex="1">
          <mxGeometry x="325" y="-180" width="170" height="60" as="geometry" />
        </mxCell>
        <mxCell id="SfglfKDmZpsh_MLC09GV-5" style="edgeStyle=orthogonalEdgeStyle;rounded=0;orthogonalLoop=1;jettySize=auto;html=1;exitX=0.5;exitY=0;exitDx=0;exitDy=0;entryX=0;entryY=0.404;entryDx=0;entryDy=0;entryPerimeter=0;" edge="1" parent="1" source="L85n3WBJSnVvxrAXj8Ar-6" target="L85n3WBJSnVvxrAXj8Ar-9">
          <mxGeometry relative="1" as="geometry" />
        </mxCell>
        <mxCell id="SfglfKDmZpsh_MLC09GV-7" style="edgeStyle=orthogonalEdgeStyle;rounded=0;orthogonalLoop=1;jettySize=auto;html=1;exitX=0.5;exitY=1;exitDx=0;exitDy=0;entryX=1;entryY=0.25;entryDx=0;entryDy=0;" edge="1" parent="1" source="L85n3WBJSnVvxrAXj8Ar-73" target="L85n3WBJSnVvxrAXj8Ar-10">
          <mxGeometry relative="1" as="geometry" />
        </mxCell>
        <mxCell id="SfglfKDmZpsh_MLC09GV-11" style="edgeStyle=orthogonalEdgeStyle;rounded=0;orthogonalLoop=1;jettySize=auto;html=1;exitX=0;exitY=0.25;exitDx=0;exitDy=0;entryX=1.017;entryY=0.169;entryDx=0;entryDy=0;entryPerimeter=0;" edge="1" parent="1" source="L85n3WBJSnVvxrAXj8Ar-31" target="L85n3WBJSnVvxrAXj8Ar-6">
          <mxGeometry relative="1" as="geometry" />
        </mxCell>
      </root>
    </mxGraphModel>
  </diagram>
</mxfile>
